<svg xmlns="http://www.w3.org/2000/svg" xmlns:svg="http://www.w3.org/2000/svg" id="svg5" width="90" height="50" version="1.1" viewBox="0 0 90 50"><g id="layer1"><path style="stroke:#c0c7e0;stroke-width:3;stroke-linecap:round" id="path1778" d="M 9.9999999,7.9999997 H 23.090909"/><path style="stroke:#c0c7e0;stroke-width:3;stroke-linecap:round" id="path1778-3" d="m 28.327272,7.9999997 h 3.927273"/><path style="stroke:#c0c7e0;stroke-width:3;stroke-linecap:round" id="path1778-3-6" d="m 37.490909,7.9999997 h 7.854545"/><path style="stroke:#c0c7e0;stroke-width:3;stroke-linecap:round" id="path1778-3-6-7" d="M 50.581818,7.9999997 H 70.218181"/><path style="stroke:#c0c7e0;stroke-width:3;stroke-linecap:round" id="path1778-3-9" d="M 17.781818,13.666666 H 33.490909"/><path style="stroke:#c0c7e0;stroke-width:3;stroke-linecap:round" id="path1778-3-6-2" d="m 38.727272,13.666666 h 2.618182"/><path style="stroke:#c0c7e0;stroke-width:3;stroke-linecap:round" id="path1778-3-6-7-0" d="M 75.454545,7.9999997 H 83.30909"/><path style="stroke:#c0c7e0;stroke-width:3;stroke-linecap:round" id="path1778-3-9-2" d="m 17.781818,19.333333 h 6.545454"/><path style="stroke:#c0c7e0;stroke-width:3;stroke-linecap:round" id="path1778-3-6-2-3" d="M 29.563636,19.333333 H 55.745454"/><path style="stroke:#c0c7e0;stroke-width:3;stroke-linecap:round" id="path1778-3-6-7-0-7" d="m 60.981818,19.333333 h 6.545454"/><path style="stroke:#c0c7e0;stroke-width:3;stroke-linecap:round" id="path5390" d="M 12,24.999999 24,25"/><path style="stroke:#c0c7e0;stroke-width:3;stroke-linecap:round" id="path5392" d="m 29,25 h 9"/><path style="stroke:#c0c7e0;stroke-width:3;stroke-linecap:round" id="path5396" d="M 44,25 H 58"/><path style="stroke:#c0c7e0;stroke-width:3;stroke-linecap:round" id="path5398" d="m 64.000001,25 h 6.545454"/><path style="stroke:#c0c7e0;stroke-width:3;stroke-linecap:round" id="path5400" d="m 17.163636,30.666666 h 9.163636"/><path style="stroke:#c0c7e0;stroke-width:3;stroke-linecap:round" id="path5402" d="m 31.563636,30.666666 h 7.854545"/><path style="stroke:#c0c7e0;stroke-width:3;stroke-linecap:round" id="path5404" d="m 44.654545,30.666666 h 3.927273"/><path style="stroke:#c0c7e0;stroke-width:3;stroke-linecap:round" id="path5554" d="M 17.163636,36.333332 H 38.792699"/><path style="stroke:#c0c7e0;stroke-width:3;stroke-linecap:round" id="path5556" d="M 12,41.999999 H 22.472727"/><path style="stroke:#c0c7e0;stroke-width:3;stroke-linecap:round" id="path5558" d="m 27.709091,41.999999 h 8.505756"/><path style="stroke:#c0c7e0;stroke-width:3;stroke-linecap:round" id="path5560" d="m 43.972718,36.30223 h 3.927273"/><path style="stroke:#c0c7e0;stroke-width:3;stroke-linecap:round" id="path5562" d="m 42.457505,41.999999 h 20.59704"/><path style="stroke:#c0c7e0;stroke-width:3;stroke-linecap:round" id="path5564" d="m 69.103745,41.838452 h 8.203498"/><path style="stroke:#c0c7e0;stroke-width:3;stroke-linecap:round" id="path5386" d="M 53.818181,30.666666 H 67.730298"/></g></svg>