<svg width="128" height="128" viewBox="0 0 128 128" fill="none" xmlns="http://www.w3.org/2000/svg">
<g filter="url(#filter0_ii_314_86)">
<rect x="12" y="12" width="104" height="104" rx="24" fill="url(#paint0_linear_314_86)"/>
</g>
<g filter="url(#filter1_d_314_86)">
<path d="M59.0883 85.1277C57.523 86.7092 54.9678 86.7092 53.4025 85.1277L50.8375 82.5362C49.2742 80.9568 49.298 78.406 50.8904 76.856L61.1534 66.8663C62.7667 65.296 62.7667 62.704 61.1534 61.1337L50.8904 51.144C49.298 49.594 49.2742 47.0432 50.8375 45.4638L53.4025 42.8723C54.9678 41.2908 57.523 41.2908 59.0883 42.8723L77.2149 61.1861C78.7577 62.7449 78.7577 65.2552 77.2149 66.8139L59.0883 85.1277Z" fill="#FAFAFA"/>
</g>
<defs>
<filter id="filter0_ii_314_86" x="12" y="12" width="104" height="105" filterUnits="userSpaceOnUse" color-interpolation-filters="sRGB">
<feFlood flood-opacity="0" result="BackgroundImageFix"/>
<feBlend mode="normal" in="SourceGraphic" in2="BackgroundImageFix" result="shape"/>
<feColorMatrix in="SourceAlpha" type="matrix" values="0 0 0 0 0 0 0 0 0 0 0 0 0 0 0 0 0 0 127 0" result="hardAlpha"/>
<feOffset dy="-4"/>
<feComposite in2="hardAlpha" operator="arithmetic" k2="-1" k3="1"/>
<feColorMatrix type="matrix" values="0 0 0 0 0 0 0 0 0 0 0 0 0 0 0 0 0 0 0.25 0"/>
<feBlend mode="normal" in2="shape" result="effect1_innerShadow_314_86"/>
<feColorMatrix in="SourceAlpha" type="matrix" values="0 0 0 0 0 0 0 0 0 0 0 0 0 0 0 0 0 0 127 0" result="hardAlpha"/>
<feMorphology radius="1" operator="erode" in="SourceAlpha" result="effect2_innerShadow_314_86"/>
<feOffset dy="2"/>
<feComposite in2="hardAlpha" operator="arithmetic" k2="-1" k3="1"/>
<feColorMatrix type="matrix" values="0 0 0 0 1 0 0 0 0 1 0 0 0 0 1 0 0 0 0.25 0"/>
<feBlend mode="normal" in2="effect1_innerShadow_314_86" result="effect2_innerShadow_314_86"/>
</filter>
<filter id="filter1_d_314_86" x="48.6804" y="40.6862" width="34.6915" height="50.6277" filterUnits="userSpaceOnUse" color-interpolation-filters="sRGB">
<feFlood flood-opacity="0" result="BackgroundImageFix"/>
<feColorMatrix in="SourceAlpha" type="matrix" values="0 0 0 0 0 0 0 0 0 0 0 0 0 0 0 0 0 0 127 0" result="hardAlpha"/>
<feOffset dx="2" dy="2"/>
<feGaussianBlur stdDeviation="1.5"/>
<feComposite in2="hardAlpha" operator="out"/>
<feColorMatrix type="matrix" values="0 0 0 0 0 0 0 0 0 0 0 0 0 0 0 0 0 0 0.14 0"/>
<feBlend mode="normal" in2="BackgroundImageFix" result="effect1_dropShadow_314_86"/>
<feBlend mode="normal" in="SourceGraphic" in2="effect1_dropShadow_314_86" result="shape"/>
</filter>
<linearGradient id="paint0_linear_314_86" x1="33.125" y1="12" x2="94.0625" y2="116" gradientUnits="userSpaceOnUse">
<stop stop-color="#2D2D2D"/>
<stop offset="1"/>
</linearGradient>
</defs>
</svg>
